SplineFontDB: 3.2
FontName: FaultSeg
FullName: FaultSeg
FamilyName: FaultSeg
Weight: Regular

StartChar: eight
Encoding: 56 56 0
Width: 32
Flags: HW
LayerCount: 2
Fore
SplineSet
4 44 m 1
 8 44 l 1
 12 44 l 1
 16 44 l 1
 20 44 l 1
 20 40 l 1
 16 40 l 1
 16 36 l 1
 12 36 l 1
 8 36 l 1
 8 40 l 1
 4 40 l 1
 4 44 l 1
20 40 m 1
 20 36 l 1
 16 36 l 1
 16 32 l 1
 16 28 l 1
 20 28 l 1
 20 24 l 1
 24 24 l 1
 24 28 l 1
 24 32 l 1
 24 36 l 1
 24 40 l 1
 20 40 l 1
20 24 m 1
 16 24 l 1
 12 24 l 1
 8 24 l 1
 4 24 l 1
 4 20 l 1
 8 20 l 1
 8 16 l 1
 12 16 l 1
 16 16 l 1
 16 20 l 1
 20 20 l 1
 20 24 l 1
20 20 m 1
 20 16 l 1
 16 16 l 1
 16 12 l 1
 16 8 l 1
 20 8 l 1
 20 4 l 1
 24 4 l 1
 24 8 l 1
 24 12 l 1
 24 16 l 1
 24 20 l 1
 20 20 l 1
20 4 m 1
 16 4 l 1
 16 8 l 1
 12 8 l 1
 8 8 l 1
 8 4 l 1
 4 4 l 1
 4 0 l 1
 8 0 l 1
 12 0 l 1
 16 0 l 1
 20 0 l 1
 20 4 l 1
4 4 m 1
 4 8 l 1
 8 8 l 1
 8 12 l 1
 8 16 l 1
 4 16 l 1
 4 20 l 1
 0 20 l 1
 0 16 l 1
 0 12 l 1
 0 8 l 1
 0 4 l 1
 4 4 l 1
4 24 m 1
 4 28 l 1
 8 28 l 1
 8 32 l 1
 8 36 l 1
 4 36 l 1
 4 40 l 1
 0 40 l 1
 0 36 l 1
 0 32 l 1
 0 28 l 1
 0 24 l 1
 4 24 l 1
EndSplineSet
Validated: 5
EndChar

StartChar: A
Encoding: 65 65 1
Width: 32
Flags: HW
LayerCount: 2
Fore
SplineSet
4 44 m 1
 8 44 l 1
 12 44 l 1
 16 44 l 1
 20 44 l 1
 20 40 l 1
 16 40 l 1
 16 36 l 1
 12 36 l 1
 8 36 l 1
 8 40 l 1
 4 40 l 1
 4 44 l 1
20 40 m 1
 20 36 l 1
 16 36 l 1
 16 32 l 1
 16 28 l 1
 20 28 l 1
 20 24 l 1
 24 24 l 1
 24 28 l 1
 24 32 l 1
 24 36 l 1
 24 40 l 1
 20 40 l 1
20 24 m 1
 16 24 l 1
 12 24 l 1
 8 24 l 1
 4 24 l 1
 4 20 l 1
 8 20 l 1
 8 16 l 1
 12 16 l 1
 16 16 l 1
 16 20 l 1
 20 20 l 1
 20 24 l 1
20 20 m 1
 20 16 l 1
 16 16 l 1
 16 12 l 1
 16 8 l 1
 20 8 l 1
 20 4 l 1
 24 4 l 1
 24 8 l 1
 24 12 l 1
 24 16 l 1
 24 20 l 1
 20 20 l 1
20 4 m 1
 16 4 l 1
 16 8 l 1
 12 8 l 1
 8 8 l 1
 8 4 l 1
 4 4 l 1
 4 0 l 1
 8 0 l 1
 12 0 l 1
 16 0 l 1
 20 0 l 1
 20 4 l 1
4 4 m 1
 4 8 l 1
 8 8 l 1
 8 12 l 1
 8 16 l 1
 4 16 l 1
 4 20 l 1
 0 20 l 1
 0 16 l 1
 0 12 l 1
 0 8 l 1
 0 4 l 1
 4 4 l 1
EndSplineSet
Validated: 5
EndChar

StartChar: zero
Encoding: 48 48 2
Width: 32
Flags: HW
LayerCount: 2
Fore
SplineSet
4 44 m 1
 8 44 l 1
 12 44 l 1
 16 44 l 1
 20 44 l 1
 20 40 l 1
 16 40 l 1
 16 36 l 1
 12 36 l 1
 8 36 l 1
 8 40 l 1
 4 40 l 1
 4 44 l 1
20 40 m 1
 20 36 l 1
 16 36 l 1
 16 32 l 1
 16 28 l 1
 20 28 l 1
 20 24 l 1
 24 24 l 1
 24 28 l 1
 24 32 l 1
 24 36 l 1
 24 40 l 1
 20 40 l 1
8 36 m 1
 4 36 l 1
 4 40 l 1
 0 40 l 1
 0 36 l 1
 0 32 l 1
 0 28 l 1
 0 24 l 1
 4 24 l 1
 4 28 l 1
 8 28 l 1
 8 32 l 1
 8 36 l 1
0 20 m 1
 4 20 l 1
 4 16 l 1
 8 16 l 1
 8 12 l 1
 8 8 l 1
 4 8 l 1
 4 4 l 1
 0 4 l 1
 0 8 l 1
 0 12 l 1
 0 16 l 1
 0 20 l 1
8 8 m 1
 8 4 l 1
 4 4 l 1
 4 0 l 1
 8 0 l 1
 12 0 l 1
 16 0 l 1
 20 0 l 1
 20 4 l 1
 16 4 l 1
 16 8 l 1
 12 8 l 1
 8 8 l 1
16 8 m 1
 16 12 l 1
 16 16 l 1
 20 16 l 1
 20 20 l 1
 24 20 l 1
 24 16 l 1
 24 12 l 1
 24 8 l 1
 24 4 l 1
 20 4 l 1
 20 8 l 1
 16 8 l 1
EndSplineSet
Validated: 5
EndChar

StartChar: one
Encoding: 49 49 3
Width: 32
Flags: HW
LayerCount: 2
Fore
SplineSet
20 40 m 1
 24 40 l 1
 24 36 l 1
 24 32 l 1
 24 28 l 1
 24 24 l 1
 20 24 l 1
 20 28 l 1
 16 28 l 1
 16 32 l 1
 16 36 l 1
 20 36 l 1
 20 40 l 1
20 20 m 1
 24 20 l 1
 24 16 l 1
 24 12 l 1
 24 8 l 1
 24 4 l 1
 20 4 l 1
 20 8 l 1
 16 8 l 1
 16 12 l 1
 16 16 l 1
 20 16 l 1
 20 20 l 1
EndSplineSet
Validated: 1
EndChar

StartChar: two
Encoding: 50 50 4
Width: 32
Flags: HW
LayerCount: 2
Fore
SplineSet
4 44 m 1
 8 44 l 1
 12 44 l 1
 16 44 l 1
 20 44 l 1
 20 40 l 1
 16 40 l 1
 16 36 l 1
 12 36 l 1
 8 36 l 1
 8 40 l 1
 4 40 l 1
 4 44 l 1
20 40 m 1
 20 36 l 1
 16 36 l 1
 16 32 l 1
 16 28 l 1
 20 28 l 1
 20 24 l 1
 24 24 l 1
 24 28 l 1
 24 32 l 1
 24 36 l 1
 24 40 l 1
 20 40 l 1
20 24 m 1
 16 24 l 1
 12 24 l 1
 8 24 l 1
 4 24 l 1
 4 20 l 1
 8 20 l 1
 8 16 l 1
 12 16 l 1
 16 16 l 1
 16 20 l 1
 20 20 l 1
 20 24 l 1
8 16 m 1
 4 16 l 1
 4 20 l 1
 0 20 l 1
 0 16 l 1
 0 12 l 1
 0 8 l 1
 0 4 l 1
 4 4 l 1
 4 8 l 1
 8 8 l 1
 8 12 l 1
 8 16 l 1
8 8 m 1
 8 4 l 1
 4 4 l 1
 4 0 l 1
 8 0 l 1
 12 0 l 1
 16 0 l 1
 20 0 l 1
 20 4 l 1
 16 4 l 1
 16 8 l 1
 12 8 l 1
 8 8 l 1
EndSplineSet
Validated: 5
EndChar

StartChar: three
Encoding: 51 51 5
Width: 32
Flags: HW
LayerCount: 2
Fore
SplineSet
4 44 m 1
 8 44 l 1
 12 44 l 1
 16 44 l 1
 20 44 l 1
 20 40 l 1
 16 40 l 1
 16 36 l 1
 12 36 l 1
 8 36 l 1
 8 40 l 1
 4 40 l 1
 4 44 l 1
20 40 m 1
 20 36 l 1
 16 36 l 1
 16 32 l 1
 16 28 l 1
 20 28 l 1
 20 24 l 1
 24 24 l 1
 24 28 l 1
 24 32 l 1
 24 36 l 1
 24 40 l 1
 20 40 l 1
20 24 m 1
 16 24 l 1
 12 24 l 1
 8 24 l 1
 4 24 l 1
 4 20 l 1
 8 20 l 1
 8 16 l 1
 12 16 l 1
 16 16 l 1
 16 20 l 1
 20 20 l 1
 20 24 l 1
20 20 m 1
 20 16 l 1
 16 16 l 1
 16 12 l 1
 16 8 l 1
 20 8 l 1
 20 4 l 1
 24 4 l 1
 24 8 l 1
 24 12 l 1
 24 16 l 1
 24 20 l 1
 20 20 l 1
20 4 m 1
 16 4 l 1
 16 8 l 1
 12 8 l 1
 8 8 l 1
 8 4 l 1
 4 4 l 1
 4 0 l 1
 8 0 l 1
 12 0 l 1
 16 0 l 1
 20 0 l 1
 20 4 l 1
EndSplineSet
Validated: 5
EndChar

StartChar: four
Encoding: 52 52 6
Width: 32
Flags: HW
LayerCount: 2
Fore
SplineSet
0 40 m 1
 4 40 l 1
 4 36 l 1
 8 36 l 1
 8 32 l 1
 8 28 l 1
 4 28 l 1
 4 24 l 1
 0 24 l 1
 0 28 l 1
 0 32 l 1
 0 36 l 1
 0 40 l 1
4 24 m 1
 4 20 l 1
 8 20 l 1
 8 16 l 1
 12 16 l 1
 16 16 l 1
 16 20 l 1
 20 20 l 1
 20 24 l 1
 16 24 l 1
 12 24 l 1
 8 24 l 1
 4 24 l 1
20 24 m 1
 20 28 l 1
 16 28 l 1
 16 32 l 1
 16 36 l 1
 20 36 l 1
 20 40 l 1
 24 40 l 1
 24 36 l 1
 24 32 l 1
 24 28 l 1
 24 24 l 1
 20 24 l 1
20 20 m 1
 20 16 l 1
 16 16 l 1
 16 12 l 1
 16 8 l 1
 20 8 l 1
 20 4 l 1
 24 4 l 1
 24 8 l 1
 24 12 l 1
 24 16 l 1
 24 20 l 1
 20 20 l 1
EndSplineSet
Validated: 5
EndChar

StartChar: five
Encoding: 53 53 7
Width: 32
Flags: HW
LayerCount: 2
Fore
SplineSet
4 44 m 1
 8 44 l 1
 12 44 l 1
 16 44 l 1
 20 44 l 1
 20 40 l 1
 16 40 l 1
 16 36 l 1
 12 36 l 1
 8 36 l 1
 8 40 l 1
 4 40 l 1
 4 44 l 1
8 36 m 1
 4 36 l 1
 4 40 l 1
 0 40 l 1
 0 36 l 1
 0 32 l 1
 0 28 l 1
 0 24 l 1
 4 24 l 1
 4 28 l 1
 8 28 l 1
 8 32 l 1
 8 36 l 1
4 24 m 1
 4 20 l 1
 8 20 l 1
 8 16 l 1
 12 16 l 1
 16 16 l 1
 16 20 l 1
 20 20 l 1
 20 24 l 1
 16 24 l 1
 12 24 l 1
 8 24 l 1
 4 24 l 1
20 20 m 1
 20 16 l 1
 16 16 l 1
 16 12 l 1
 16 8 l 1
 20 8 l 1
 20 4 l 1
 24 4 l 1
 24 8 l 1
 24 12 l 1
 24 16 l 1
 24 20 l 1
 20 20 l 1
20 4 m 1
 16 4 l 1
 16 8 l 1
 12 8 l 1
 8 8 l 1
 8 4 l 1
 4 4 l 1
 4 0 l 1
 8 0 l 1
 12 0 l 1
 16 0 l 1
 20 0 l 1
 20 4 l 1
EndSplineSet
Validated: 5
EndChar

StartChar: six
Encoding: 54 54 8
Width: 32
Flags: HW
LayerCount: 2
Fore
SplineSet
4 44 m 1
 8 44 l 1
 12 44 l 1
 16 44 l 1
 20 44 l 1
 20 40 l 1
 16 40 l 1
 16 36 l 1
 12 36 l 1
 8 36 l 1
 8 40 l 1
 4 40 l 1
 4 44 l 1
8 36 m 1
 4 36 l 1
 4 40 l 1
 0 40 l 1
 0 36 l 1
 0 32 l 1
 0 28 l 1
 0 24 l 1
 4 24 l 1
 4 28 l 1
 8 28 l 1
 8 32 l 1
 8 36 l 1
4 24 m 1
 4 20 l 1
 8 20 l 1
 8 16 l 1
 12 16 l 1
 16 16 l 1
 16 20 l 1
 20 20 l 1
 20 24 l 1
 16 24 l 1
 12 24 l 1
 8 24 l 1
 4 24 l 1
20 20 m 1
 20 16 l 1
 16 16 l 1
 16 12 l 1
 16 8 l 1
 20 8 l 1
 20 4 l 1
 24 4 l 1
 24 8 l 1
 24 12 l 1
 24 16 l 1
 24 20 l 1
 20 20 l 1
20 4 m 1
 16 4 l 1
 16 8 l 1
 12 8 l 1
 8 8 l 1
 8 4 l 1
 4 4 l 1
 4 0 l 1
 8 0 l 1
 12 0 l 1
 16 0 l 1
 20 0 l 1
 20 4 l 1
4 4 m 1
 4 8 l 1
 8 8 l 1
 8 12 l 1
 8 16 l 1
 4 16 l 1
 4 20 l 1
 0 20 l 1
 0 16 l 1
 0 12 l 1
 0 8 l 1
 0 4 l 1
 4 4 l 1
EndSplineSet
Validated: 5
EndChar

StartChar: seven
Encoding: 55 55 9
Width: 32
Flags: HW
LayerCount: 2
Fore
SplineSet
4 44 m 1
 8 44 l 1
 12 44 l 1
 16 44 l 1
 20 44 l 1
 20 40 l 1
 16 40 l 1
 16 36 l 1
 12 36 l 1
 8 36 l 1
 8 40 l 1
 4 40 l 1
 4 44 l 1
20 40 m 1
 20 36 l 1
 16 36 l 1
 16 32 l 1
 16 28 l 1
 20 28 l 1
 20 24 l 1
 24 24 l 1
 24 28 l 1
 24 32 l 1
 24 36 l 1
 24 40 l 1
 20 40 l 1
20 20 m 1
 24 20 l 1
 24 16 l 1
 24 12 l 1
 24 8 l 1
 24 4 l 1
 20 4 l 1
 20 8 l 1
 16 8 l 1
 16 12 l 1
 16 16 l 1
 20 16 l 1
 20 20 l 1
EndSplineSet
Validated: 5
EndChar

StartChar: nine
Encoding: 57 57 10
Width: 32
Flags: HW
LayerCount: 2
Fore
SplineSet
4 44 m 1
 8 44 l 1
 12 44 l 1
 16 44 l 1
 20 44 l 1
 20 40 l 1
 16 40 l 1
 16 36 l 1
 12 36 l 1
 8 36 l 1
 8 40 l 1
 4 40 l 1
 4 44 l 1
20 40 m 1
 20 36 l 1
 16 36 l 1
 16 32 l 1
 16 28 l 1
 20 28 l 1
 20 24 l 1
 24 24 l 1
 24 28 l 1
 24 32 l 1
 24 36 l 1
 24 40 l 1
 20 40 l 1
20 24 m 1
 16 24 l 1
 12 24 l 1
 8 24 l 1
 4 24 l 1
 4 20 l 1
 8 20 l 1
 8 16 l 1
 12 16 l 1
 16 16 l 1
 16 20 l 1
 20 20 l 1
 20 24 l 1
20 20 m 1
 20 16 l 1
 16 16 l 1
 16 12 l 1
 16 8 l 1
 20 8 l 1
 20 4 l 1
 24 4 l 1
 24 8 l 1
 24 12 l 1
 24 16 l 1
 24 20 l 1
 20 20 l 1
4 24 m 1
 4 28 l 1
 8 28 l 1
 8 32 l 1
 8 36 l 1
 4 36 l 1
 4 40 l 1
 0 40 l 1
 0 36 l 1
 0 32 l 1
 0 28 l 1
 0 24 l 1
 4 24 l 1
EndSplineSet
Validated: 5
EndChar

StartChar: B
Encoding: 66 66 11
Width: 32
Flags: HW
LayerCount: 2
Fore
SplineSet
0 40 m 1
 4 40 l 1
 4 36 l 1
 8 36 l 1
 8 32 l 1
 8 28 l 1
 4 28 l 1
 4 24 l 1
 0 24 l 1
 0 28 l 1
 0 32 l 1
 0 36 l 1
 0 40 l 1
4 24 m 1
 4 20 l 1
 8 20 l 1
 8 16 l 1
 12 16 l 1
 16 16 l 1
 16 20 l 1
 20 20 l 1
 20 24 l 1
 16 24 l 1
 12 24 l 1
 8 24 l 1
 4 24 l 1
20 20 m 1
 20 16 l 1
 16 16 l 1
 16 12 l 1
 16 8 l 1
 20 8 l 1
 20 4 l 1
 24 4 l 1
 24 8 l 1
 24 12 l 1
 24 16 l 1
 24 20 l 1
 20 20 l 1
20 4 m 1
 16 4 l 1
 16 8 l 1
 12 8 l 1
 8 8 l 1
 8 4 l 1
 4 4 l 1
 4 0 l 1
 8 0 l 1
 12 0 l 1
 16 0 l 1
 20 0 l 1
 20 4 l 1
4 4 m 1
 4 8 l 1
 8 8 l 1
 8 12 l 1
 8 16 l 1
 4 16 l 1
 4 20 l 1
 0 20 l 1
 0 16 l 1
 0 12 l 1
 0 8 l 1
 0 4 l 1
 4 4 l 1
EndSplineSet
Validated: 5
EndChar

StartChar: C
Encoding: 67 67 12
Width: 32
Flags: HW
LayerCount: 2
Fore
SplineSet
4 24 m 1
 8 24 l 1
 12 24 l 1
 16 24 l 1
 20 24 l 1
 20 20 l 1
 16 20 l 1
 16 16 l 1
 12 16 l 1
 8 16 l 1
 8 20 l 1
 4 20 l 1
 4 24 l 1
8 16 m 1
 4 16 l 1
 4 20 l 1
 0 20 l 1
 0 16 l 1
 0 12 l 1
 0 8 l 1
 0 4 l 1
 4 4 l 1
 4 8 l 1
 8 8 l 1
 8 12 l 1
 8 16 l 1
8 8 m 1
 8 4 l 1
 4 4 l 1
 4 0 l 1
 8 0 l 1
 12 0 l 1
 16 0 l 1
 20 0 l 1
 20 4 l 1
 16 4 l 1
 16 8 l 1
 12 8 l 1
 8 8 l 1
EndSplineSet
Validated: 5
EndChar

StartChar: D
Encoding: 68 68 13
Width: 32
Flags: HW
LayerCount: 2
Fore
SplineSet
20 40 m 1
 24 40 l 1
 24 36 l 1
 24 32 l 1
 24 28 l 1
 24 24 l 1
 20 24 l 1
 20 28 l 1
 16 28 l 1
 16 32 l 1
 16 36 l 1
 20 36 l 1
 20 40 l 1
20 24 m 1
 16 24 l 1
 12 24 l 1
 8 24 l 1
 4 24 l 1
 4 20 l 1
 8 20 l 1
 8 16 l 1
 12 16 l 1
 16 16 l 1
 16 20 l 1
 20 20 l 1
 20 24 l 1
20 20 m 1
 20 16 l 1
 16 16 l 1
 16 12 l 1
 16 8 l 1
 20 8 l 1
 20 4 l 1
 24 4 l 1
 24 8 l 1
 24 12 l 1
 24 16 l 1
 24 20 l 1
 20 20 l 1
20 4 m 1
 16 4 l 1
 16 8 l 1
 12 8 l 1
 8 8 l 1
 8 4 l 1
 4 4 l 1
 4 0 l 1
 8 0 l 1
 12 0 l 1
 16 0 l 1
 20 0 l 1
 20 4 l 1
4 4 m 1
 4 8 l 1
 8 8 l 1
 8 12 l 1
 8 16 l 1
 4 16 l 1
 4 20 l 1
 0 20 l 1
 0 16 l 1
 0 12 l 1
 0 8 l 1
 0 4 l 1
 4 4 l 1
EndSplineSet
Validated: 5
EndChar

StartChar: E
Encoding: 69 69 14
Width: 32
Flags: HW
LayerCount: 2
Fore
SplineSet
4 44 m 1
 8 44 l 1
 12 44 l 1
 16 44 l 1
 20 44 l 1
 20 40 l 1
 16 40 l 1
 16 36 l 1
 12 36 l 1
 8 36 l 1
 8 40 l 1
 4 40 l 1
 4 44 l 1
20 40 m 1
 20 36 l 1
 16 36 l 1
 16 32 l 1
 16 28 l 1
 20 28 l 1
 20 24 l 1
 24 24 l 1
 24 28 l 1
 24 32 l 1
 24 36 l 1
 24 40 l 1
 20 40 l 1
20 24 m 1
 16 24 l 1
 12 24 l 1
 8 24 l 1
 4 24 l 1
 4 20 l 1
 8 20 l 1
 8 16 l 1
 12 16 l 1
 16 16 l 1
 16 20 l 1
 20 20 l 1
 20 24 l 1
8 16 m 1
 4 16 l 1
 4 20 l 1
 0 20 l 1
 0 16 l 1
 0 12 l 1
 0 8 l 1
 0 4 l 1
 4 4 l 1
 4 8 l 1
 8 8 l 1
 8 12 l 1
 8 16 l 1
8 8 m 1
 8 4 l 1
 4 4 l 1
 4 0 l 1
 8 0 l 1
 12 0 l 1
 16 0 l 1
 20 0 l 1
 20 4 l 1
 16 4 l 1
 16 8 l 1
 12 8 l 1
 8 8 l 1
4 24 m 1
 4 28 l 1
 8 28 l 1
 8 32 l 1
 8 36 l 1
 4 36 l 1
 4 40 l 1
 0 40 l 1
 0 36 l 1
 0 32 l 1
 0 28 l 1
 0 24 l 1
 4 24 l 1
EndSplineSet
Validated: 5
EndChar

StartChar: F
Encoding: 70 70 15
Width: 32
Flags: HW
LayerCount: 2
Fore
SplineSet
4 44 m 1
 8 44 l 1
 12 44 l 1
 16 44 l 1
 20 44 l 1
 20 40 l 1
 16 40 l 1
 16 36 l 1
 12 36 l 1
 8 36 l 1
 8 40 l 1
 4 40 l 1
 4 44 l 1
8 36 m 1
 4 36 l 1
 4 40 l 1
 0 40 l 1
 0 36 l 1
 0 32 l 1
 0 28 l 1
 0 24 l 1
 4 24 l 1
 4 28 l 1
 8 28 l 1
 8 32 l 1
 8 36 l 1
4 24 m 1
 4 20 l 1
 8 20 l 1
 8 16 l 1
 12 16 l 1
 16 16 l 1
 16 20 l 1
 20 20 l 1
 20 24 l 1
 16 24 l 1
 12 24 l 1
 8 24 l 1
 4 24 l 1
8 16 m 1
 4 16 l 1
 4 20 l 1
 0 20 l 1
 0 16 l 1
 0 12 l 1
 0 8 l 1
 0 4 l 1
 4 4 l 1
 4 8 l 1
 8 8 l 1
 8 12 l 1
 8 16 l 1
EndSplineSet
Validated: 5
EndChar

StartChar: G
Encoding: 71 71 16
Width: 32
Flags: HW
LayerCount: 2
Fore
SplineSet
4 44 m 1
 8 44 l 1
 12 44 l 1
 16 44 l 1
 20 44 l 1
 20 40 l 1
 16 40 l 1
 16 36 l 1
 12 36 l 1
 8 36 l 1
 8 40 l 1
 4 40 l 1
 4 44 l 1
20 40 m 1
 20 36 l 1
 16 36 l 1
 16 32 l 1
 16 28 l 1
 20 28 l 1
 20 24 l 1
 24 24 l 1
 24 28 l 1
 24 32 l 1
 24 36 l 1
 24 40 l 1
 20 40 l 1
20 24 m 1
 16 24 l 1
 12 24 l 1
 8 24 l 1
 4 24 l 1
 4 20 l 1
 8 20 l 1
 8 16 l 1
 12 16 l 1
 16 16 l 1
 16 20 l 1
 20 20 l 1
 20 24 l 1
20 20 m 1
 20 16 l 1
 16 16 l 1
 16 12 l 1
 16 8 l 1
 20 8 l 1
 20 4 l 1
 24 4 l 1
 24 8 l 1
 24 12 l 1
 24 16 l 1
 24 20 l 1
 20 20 l 1
20 4 m 1
 16 4 l 1
 16 8 l 1
 12 8 l 1
 8 8 l 1
 8 4 l 1
 4 4 l 1
 4 0 l 1
 8 0 l 1
 12 0 l 1
 16 0 l 1
 20 0 l 1
 20 4 l 1
4 24 m 1
 4 28 l 1
 8 28 l 1
 8 32 l 1
 8 36 l 1
 4 36 l 1
 4 40 l 1
 0 40 l 1
 0 36 l 1
 0 32 l 1
 0 28 l 1
 0 24 l 1
 4 24 l 1
EndSplineSet
Validated: 5
EndChar

StartChar: H
Encoding: 72 72 17
Width: 32
Flags: HW
LayerCount: 2
Fore
SplineSet
0 40 m 1
 4 40 l 1
 4 36 l 1
 8 36 l 1
 8 32 l 1
 8 28 l 1
 4 28 l 1
 4 24 l 1
 0 24 l 1
 0 28 l 1
 0 32 l 1
 0 36 l 1
 0 40 l 1
4 24 m 1
 4 20 l 1
 8 20 l 1
 8 16 l 1
 12 16 l 1
 16 16 l 1
 16 20 l 1
 20 20 l 1
 20 24 l 1
 16 24 l 1
 12 24 l 1
 8 24 l 1
 4 24 l 1
20 20 m 1
 20 16 l 1
 16 16 l 1
 16 12 l 1
 16 8 l 1
 20 8 l 1
 20 4 l 1
 24 4 l 1
 24 8 l 1
 24 12 l 1
 24 16 l 1
 24 20 l 1
 20 20 l 1
8 16 m 1
 4 16 l 1
 4 20 l 1
 0 20 l 1
 0 16 l 1
 0 12 l 1
 0 8 l 1
 0 4 l 1
 4 4 l 1
 4 8 l 1
 8 8 l 1
 8 12 l 1
 8 16 l 1
EndSplineSet
Validated: 5
EndChar

StartChar: I
Encoding: 73 73 18
Width: 32
Flags: HW
LayerCount: 2
Fore
SplineSet
0 20 m 1
 4 20 l 1
 4 16 l 1
 8 16 l 1
 8 12 l 1
 8 8 l 1
 4 8 l 1
 4 4 l 1
 0 4 l 1
 0 8 l 1
 0 12 l 1
 0 16 l 1
 0 20 l 1
EndSplineSet
Validated: 1
EndChar

StartChar: J
Encoding: 74 74 19
Width: 32
Flags: HW
LayerCount: 2
Fore
SplineSet
20 40 m 1
 24 40 l 1
 24 36 l 1
 24 32 l 1
 24 28 l 1
 24 24 l 1
 20 24 l 1
 20 28 l 1
 16 28 l 1
 16 32 l 1
 16 36 l 1
 20 36 l 1
 20 40 l 1
0 20 m 1
 4 20 l 1
 4 16 l 1
 8 16 l 1
 8 12 l 1
 8 8 l 1
 4 8 l 1
 4 4 l 1
 0 4 l 1
 0 8 l 1
 0 12 l 1
 0 16 l 1
 0 20 l 1
8 8 m 1
 8 4 l 1
 4 4 l 1
 4 0 l 1
 8 0 l 1
 12 0 l 1
 16 0 l 1
 20 0 l 1
 20 4 l 1
 16 4 l 1
 16 8 l 1
 12 8 l 1
 8 8 l 1
16 8 m 1
 16 12 l 1
 16 16 l 1
 20 16 l 1
 20 20 l 1
 24 20 l 1
 24 16 l 1
 24 12 l 1
 24 8 l 1
 24 4 l 1
 20 4 l 1
 20 8 l 1
 16 8 l 1
EndSplineSet
Validated: 5
EndChar

StartChar: K
Encoding: 75 75 20
Width: 32
Flags: HW
LayerCount: 2
Fore
SplineSet
0 40 m 1
 4 40 l 1
 4 36 l 1
 8 36 l 1
 8 32 l 1
 8 28 l 1
 4 28 l 1
 4 24 l 1
 0 24 l 1
 0 28 l 1
 0 32 l 1
 0 36 l 1
 0 40 l 1
4 24 m 1
 4 20 l 1
 8 20 l 1
 8 16 l 1
 12 16 l 1
 16 16 l 1
 16 20 l 1
 20 20 l 1
 20 24 l 1
 16 24 l 1
 12 24 l 1
 8 24 l 1
 4 24 l 1
20 24 m 1
 20 28 l 1
 16 28 l 1
 16 32 l 1
 16 36 l 1
 20 36 l 1
 20 40 l 1
 24 40 l 1
 24 36 l 1
 24 32 l 1
 24 28 l 1
 24 24 l 1
 20 24 l 1
20 20 m 1
 20 16 l 1
 16 16 l 1
 16 12 l 1
 16 8 l 1
 20 8 l 1
 20 4 l 1
 24 4 l 1
 24 8 l 1
 24 12 l 1
 24 16 l 1
 24 20 l 1
 20 20 l 1
8 16 m 1
 4 16 l 1
 4 20 l 1
 0 20 l 1
 0 16 l 1
 0 12 l 1
 0 8 l 1
 0 4 l 1
 4 4 l 1
 4 8 l 1
 8 8 l 1
 8 12 l 1
 8 16 l 1
EndSplineSet
Validated: 5
EndChar

StartChar: L
Encoding: 76 76 21
Width: 32
Flags: HW
LayerCount: 2
Fore
SplineSet
0 40 m 1
 4 40 l 1
 4 36 l 1
 8 36 l 1
 8 32 l 1
 8 28 l 1
 4 28 l 1
 4 24 l 1
 0 24 l 1
 0 28 l 1
 0 32 l 1
 0 36 l 1
 0 40 l 1
0 20 m 1
 4 20 l 1
 4 16 l 1
 8 16 l 1
 8 12 l 1
 8 8 l 1
 4 8 l 1
 4 4 l 1
 0 4 l 1
 0 8 l 1
 0 12 l 1
 0 16 l 1
 0 20 l 1
8 8 m 1
 8 4 l 1
 4 4 l 1
 4 0 l 1
 8 0 l 1
 12 0 l 1
 16 0 l 1
 20 0 l 1
 20 4 l 1
 16 4 l 1
 16 8 l 1
 12 8 l 1
 8 8 l 1
EndSplineSet
Validated: 5
EndChar

StartChar: M
Encoding: 77 77 22
Width: 32
Flags: HW
LayerCount: 2
Fore
SplineSet
4 44 m 1
 8 44 l 1
 12 44 l 1
 16 44 l 1
 20 44 l 1
 20 40 l 1
 16 40 l 1
 16 36 l 1
 12 36 l 1
 8 36 l 1
 8 40 l 1
 4 40 l 1
 4 44 l 1
20 40 m 1
 20 36 l 1
 16 36 l 1
 16 32 l 1
 16 28 l 1
 20 28 l 1
 20 24 l 1
 24 24 l 1
 24 28 l 1
 24 32 l 1
 24 36 l 1
 24 40 l 1
 20 40 l 1
8 36 m 1
 4 36 l 1
 4 40 l 1
 0 40 l 1
 0 36 l 1
 0 32 l 1
 0 28 l 1
 0 24 l 1
 4 24 l 1
 4 28 l 1
 8 28 l 1
 8 32 l 1
 8 36 l 1
0 20 m 1
 4 20 l 1
 4 16 l 1
 8 16 l 1
 8 12 l 1
 8 8 l 1
 4 8 l 1
 4 4 l 1
 0 4 l 1
 0 8 l 1
 0 12 l 1
 0 16 l 1
 0 20 l 1
20 20 m 1
 24 20 l 1
 24 16 l 1
 24 12 l 1
 24 8 l 1
 24 4 l 1
 20 4 l 1
 20 8 l 1
 16 8 l 1
 16 12 l 1
 16 16 l 1
 20 16 l 1
 20 20 l 1
EndSplineSet
Validated: 5
EndChar

StartChar: N
Encoding: 78 78 23
Width: 32
Flags: HW
LayerCount: 2
Fore
SplineSet
4 24 m 1
 8 24 l 1
 12 24 l 1
 16 24 l 1
 20 24 l 1
 20 20 l 1
 16 20 l 1
 16 16 l 1
 12 16 l 1
 8 16 l 1
 8 20 l 1
 4 20 l 1
 4 24 l 1
20 20 m 1
 20 16 l 1
 16 16 l 1
 16 12 l 1
 16 8 l 1
 20 8 l 1
 20 4 l 1
 24 4 l 1
 24 8 l 1
 24 12 l 1
 24 16 l 1
 24 20 l 1
 20 20 l 1
8 16 m 1
 4 16 l 1
 4 20 l 1
 0 20 l 1
 0 16 l 1
 0 12 l 1
 0 8 l 1
 0 4 l 1
 4 4 l 1
 4 8 l 1
 8 8 l 1
 8 12 l 1
 8 16 l 1
EndSplineSet
Validated: 5
EndChar

StartChar: O
Encoding: 79 79 24
Width: 32
Flags: HW
LayerCount: 2
Fore
SplineSet
4 24 m 1
 8 24 l 1
 12 24 l 1
 16 24 l 1
 20 24 l 1
 20 20 l 1
 16 20 l 1
 16 16 l 1
 12 16 l 1
 8 16 l 1
 8 20 l 1
 4 20 l 1
 4 24 l 1
20 20 m 1
 20 16 l 1
 16 16 l 1
 16 12 l 1
 16 8 l 1
 20 8 l 1
 20 4 l 1
 24 4 l 1
 24 8 l 1
 24 12 l 1
 24 16 l 1
 24 20 l 1
 20 20 l 1
20 4 m 1
 16 4 l 1
 16 8 l 1
 12 8 l 1
 8 8 l 1
 8 4 l 1
 4 4 l 1
 4 0 l 1
 8 0 l 1
 12 0 l 1
 16 0 l 1
 20 0 l 1
 20 4 l 1
4 4 m 1
 4 8 l 1
 8 8 l 1
 8 12 l 1
 8 16 l 1
 4 16 l 1
 4 20 l 1
 0 20 l 1
 0 16 l 1
 0 12 l 1
 0 8 l 1
 0 4 l 1
 4 4 l 1
EndSplineSet
Validated: 5
EndChar

StartChar: P
Encoding: 80 80 25
Width: 32
Flags: HW
LayerCount: 2
Fore
SplineSet
4 44 m 1
 8 44 l 1
 12 44 l 1
 16 44 l 1
 20 44 l 1
 20 40 l 1
 16 40 l 1
 16 36 l 1
 12 36 l 1
 8 36 l 1
 8 40 l 1
 4 40 l 1
 4 44 l 1
20 40 m 1
 20 36 l 1
 16 36 l 1
 16 32 l 1
 16 28 l 1
 20 28 l 1
 20 24 l 1
 24 24 l 1
 24 28 l 1
 24 32 l 1
 24 36 l 1
 24 40 l 1
 20 40 l 1
20 24 m 1
 16 24 l 1
 12 24 l 1
 8 24 l 1
 4 24 l 1
 4 20 l 1
 8 20 l 1
 8 16 l 1
 12 16 l 1
 16 16 l 1
 16 20 l 1
 20 20 l 1
 20 24 l 1
8 16 m 1
 4 16 l 1
 4 20 l 1
 0 20 l 1
 0 16 l 1
 0 12 l 1
 0 8 l 1
 0 4 l 1
 4 4 l 1
 4 8 l 1
 8 8 l 1
 8 12 l 1
 8 16 l 1
4 24 m 1
 4 28 l 1
 8 28 l 1
 8 32 l 1
 8 36 l 1
 4 36 l 1
 4 40 l 1
 0 40 l 1
 0 36 l 1
 0 32 l 1
 0 28 l 1
 0 24 l 1
 4 24 l 1
EndSplineSet
Validated: 5
EndChar

StartChar: Q
Encoding: 81 81 26
Width: 32
Flags: HW
LayerCount: 2
Fore
SplineSet
4 44 m 1
 8 44 l 1
 12 44 l 1
 16 44 l 1
 20 44 l 1
 20 40 l 1
 16 40 l 1
 16 36 l 1
 12 36 l 1
 8 36 l 1
 8 40 l 1
 4 40 l 1
 4 44 l 1
20 40 m 1
 20 36 l 1
 16 36 l 1
 16 32 l 1
 16 28 l 1
 20 28 l 1
 20 24 l 1
 24 24 l 1
 24 28 l 1
 24 32 l 1
 24 36 l 1
 24 40 l 1
 20 40 l 1
20 24 m 1
 16 24 l 1
 12 24 l 1
 8 24 l 1
 4 24 l 1
 4 20 l 1
 8 20 l 1
 8 16 l 1
 12 16 l 1
 16 16 l 1
 16 20 l 1
 20 20 l 1
 20 24 l 1
20 20 m 1
 20 16 l 1
 16 16 l 1
 16 12 l 1
 16 8 l 1
 20 8 l 1
 20 4 l 1
 24 4 l 1
 24 8 l 1
 24 12 l 1
 24 16 l 1
 24 20 l 1
 20 20 l 1
4 24 m 1
 4 28 l 1
 8 28 l 1
 8 32 l 1
 8 36 l 1
 4 36 l 1
 4 40 l 1
 0 40 l 1
 0 36 l 1
 0 32 l 1
 0 28 l 1
 0 24 l 1
 4 24 l 1
EndSplineSet
Validated: 5
EndChar

StartChar: R
Encoding: 82 82 27
Width: 32
Flags: HW
LayerCount: 2
Fore
SplineSet
4 24 m 1
 8 24 l 1
 12 24 l 1
 16 24 l 1
 20 24 l 1
 20 20 l 1
 16 20 l 1
 16 16 l 1
 12 16 l 1
 8 16 l 1
 8 20 l 1
 4 20 l 1
 4 24 l 1
8 16 m 1
 4 16 l 1
 4 20 l 1
 0 20 l 1
 0 16 l 1
 0 12 l 1
 0 8 l 1
 0 4 l 1
 4 4 l 1
 4 8 l 1
 8 8 l 1
 8 12 l 1
 8 16 l 1
EndSplineSet
Validated: 5
EndChar

StartChar: S
Encoding: 83 83 28
Width: 32
Flags: HW
LayerCount: 2
Fore
SplineSet
4 44 m 1
 8 44 l 1
 12 44 l 1
 16 44 l 1
 20 44 l 1
 20 40 l 1
 16 40 l 1
 16 36 l 1
 12 36 l 1
 8 36 l 1
 8 40 l 1
 4 40 l 1
 4 44 l 1
8 36 m 1
 4 36 l 1
 4 40 l 1
 0 40 l 1
 0 36 l 1
 0 32 l 1
 0 28 l 1
 0 24 l 1
 4 24 l 1
 4 28 l 1
 8 28 l 1
 8 32 l 1
 8 36 l 1
4 24 m 1
 4 20 l 1
 8 20 l 1
 8 16 l 1
 12 16 l 1
 16 16 l 1
 16 20 l 1
 20 20 l 1
 20 24 l 1
 16 24 l 1
 12 24 l 1
 8 24 l 1
 4 24 l 1
20 20 m 1
 20 16 l 1
 16 16 l 1
 16 12 l 1
 16 8 l 1
 20 8 l 1
 20 4 l 1
 24 4 l 1
 24 8 l 1
 24 12 l 1
 24 16 l 1
 24 20 l 1
 20 20 l 1
20 4 m 1
 16 4 l 1
 16 8 l 1
 12 8 l 1
 8 8 l 1
 8 4 l 1
 4 4 l 1
 4 0 l 1
 8 0 l 1
 12 0 l 1
 16 0 l 1
 20 0 l 1
 20 4 l 1
EndSplineSet
Validated: 5
EndChar

StartChar: T
Encoding: 84 84 29
Width: 32
Flags: HW
LayerCount: 2
Fore
SplineSet
4 24 m 1
 8 24 l 1
 12 24 l 1
 16 24 l 1
 20 24 l 1
 20 20 l 1
 16 20 l 1
 16 16 l 1
 12 16 l 1
 8 16 l 1
 8 20 l 1
 4 20 l 1
 4 24 l 1
20 20 m 1
 20 16 l 1
 16 16 l 1
 16 12 l 1
 16 8 l 1
 20 8 l 1
 20 4 l 1
 24 4 l 1
 24 8 l 1
 24 12 l 1
 24 16 l 1
 24 20 l 1
 20 20 l 1
EndSplineSet
Validated: 5
EndChar

StartChar: U
Encoding: 85 85 30
Width: 32
Flags: HW
LayerCount: 2
Fore
SplineSet
0 40 m 1
 4 40 l 1
 4 36 l 1
 8 36 l 1
 8 32 l 1
 8 28 l 1
 4 28 l 1
 4 24 l 1
 0 24 l 1
 0 28 l 1
 0 32 l 1
 0 36 l 1
 0 40 l 1
20 40 m 1
 24 40 l 1
 24 36 l 1
 24 32 l 1
 24 28 l 1
 24 24 l 1
 20 24 l 1
 20 28 l 1
 16 28 l 1
 16 32 l 1
 16 36 l 1
 20 36 l 1
 20 40 l 1
0 20 m 1
 4 20 l 1
 4 16 l 1
 8 16 l 1
 8 12 l 1
 8 8 l 1
 4 8 l 1
 4 4 l 1
 0 4 l 1
 0 8 l 1
 0 12 l 1
 0 16 l 1
 0 20 l 1
8 8 m 1
 8 4 l 1
 4 4 l 1
 4 0 l 1
 8 0 l 1
 12 0 l 1
 16 0 l 1
 20 0 l 1
 20 4 l 1
 16 4 l 1
 16 8 l 1
 12 8 l 1
 8 8 l 1
16 8 m 1
 16 12 l 1
 16 16 l 1
 20 16 l 1
 20 20 l 1
 24 20 l 1
 24 16 l 1
 24 12 l 1
 24 8 l 1
 24 4 l 1
 20 4 l 1
 20 8 l 1
 16 8 l 1
EndSplineSet
Validated: 5
EndChar

StartChar: V
Encoding: 86 86 31
Width: 32
Flags: HW
LayerCount: 2
Fore
SplineSet
0 20 m 1
 4 20 l 1
 4 16 l 1
 8 16 l 1
 8 12 l 1
 8 8 l 1
 4 8 l 1
 4 4 l 1
 0 4 l 1
 0 8 l 1
 0 12 l 1
 0 16 l 1
 0 20 l 1
8 8 m 1
 8 4 l 1
 4 4 l 1
 4 0 l 1
 8 0 l 1
 12 0 l 1
 16 0 l 1
 20 0 l 1
 20 4 l 1
 16 4 l 1
 16 8 l 1
 12 8 l 1
 8 8 l 1
16 8 m 1
 16 12 l 1
 16 16 l 1
 20 16 l 1
 20 20 l 1
 24 20 l 1
 24 16 l 1
 24 12 l 1
 24 8 l 1
 24 4 l 1
 20 4 l 1
 20 8 l 1
 16 8 l 1
EndSplineSet
Validated: 5
EndChar

StartChar: W
Encoding: 87 87 32
Width: 32
Flags: HW
LayerCount: 2
Fore
SplineSet
0 20 m 1
 4 20 l 1
 4 16 l 1
 8 16 l 1
 8 12 l 1
 8 8 l 1
 4 8 l 1
 4 4 l 1
 0 4 l 1
 0 8 l 1
 0 12 l 1
 0 16 l 1
 0 20 l 1
8 8 m 1
 8 4 l 1
 4 4 l 1
 4 0 l 1
 8 0 l 1
 12 0 l 1
 16 0 l 1
 20 0 l 1
 20 4 l 1
 16 4 l 1
 16 8 l 1
 12 8 l 1
 8 8 l 1
16 8 m 1
 16 12 l 1
 16 16 l 1
 20 16 l 1
 20 20 l 1
 24 20 l 1
 24 16 l 1
 24 12 l 1
 24 8 l 1
 24 4 l 1
 20 4 l 1
 20 8 l 1
 16 8 l 1
EndSplineSet
Validated: 5
EndChar

StartChar: X
Encoding: 88 88 33
Width: 32
Flags: HW
LayerCount: 2
Fore
SplineSet
0 40 m 1
 4 40 l 1
 4 36 l 1
 8 36 l 1
 8 32 l 1
 8 28 l 1
 4 28 l 1
 4 24 l 1
 0 24 l 1
 0 28 l 1
 0 32 l 1
 0 36 l 1
 0 40 l 1
4 24 m 1
 4 20 l 1
 8 20 l 1
 8 16 l 1
 12 16 l 1
 16 16 l 1
 16 20 l 1
 20 20 l 1
 20 24 l 1
 16 24 l 1
 12 24 l 1
 8 24 l 1
 4 24 l 1
20 24 m 1
 20 28 l 1
 16 28 l 1
 16 32 l 1
 16 36 l 1
 20 36 l 1
 20 40 l 1
 24 40 l 1
 24 36 l 1
 24 32 l 1
 24 28 l 1
 24 24 l 1
 20 24 l 1
20 20 m 1
 20 16 l 1
 16 16 l 1
 16 12 l 1
 16 8 l 1
 20 8 l 1
 20 4 l 1
 24 4 l 1
 24 8 l 1
 24 12 l 1
 24 16 l 1
 24 20 l 1
 20 20 l 1
8 16 m 1
 4 16 l 1
 4 20 l 1
 0 20 l 1
 0 16 l 1
 0 12 l 1
 0 8 l 1
 0 4 l 1
 4 4 l 1
 4 8 l 1
 8 8 l 1
 8 12 l 1
 8 16 l 1
EndSplineSet
Validated: 5
EndChar

StartChar: Y
Encoding: 89 89 34
Width: 32
Flags: HW
LayerCount: 2
Fore
SplineSet
0 40 m 1
 4 40 l 1
 4 36 l 1
 8 36 l 1
 8 32 l 1
 8 28 l 1
 4 28 l 1
 4 24 l 1
 0 24 l 1
 0 28 l 1
 0 32 l 1
 0 36 l 1
 0 40 l 1
4 24 m 1
 4 20 l 1
 8 20 l 1
 8 16 l 1
 12 16 l 1
 16 16 l 1
 16 20 l 1
 20 20 l 1
 20 24 l 1
 16 24 l 1
 12 24 l 1
 8 24 l 1
 4 24 l 1
20 24 m 1
 20 28 l 1
 16 28 l 1
 16 32 l 1
 16 36 l 1
 20 36 l 1
 20 40 l 1
 24 40 l 1
 24 36 l 1
 24 32 l 1
 24 28 l 1
 24 24 l 1
 20 24 l 1
20 20 m 1
 20 16 l 1
 16 16 l 1
 16 12 l 1
 16 8 l 1
 20 8 l 1
 20 4 l 1
 24 4 l 1
 24 8 l 1
 24 12 l 1
 24 16 l 1
 24 20 l 1
 20 20 l 1
20 4 m 1
 16 4 l 1
 16 8 l 1
 12 8 l 1
 8 8 l 1
 8 4 l 1
 4 4 l 1
 4 0 l 1
 8 0 l 1
 12 0 l 1
 16 0 l 1
 20 0 l 1
 20 4 l 1
EndSplineSet
Validated: 5
EndChar

StartChar: Z
Encoding: 90 90 35
Width: 32
Flags: HW
LayerCount: 2
Fore
SplineSet
4 44 m 1
 8 44 l 1
 12 44 l 1
 16 44 l 1
 20 44 l 1
 20 40 l 1
 16 40 l 1
 16 36 l 1
 12 36 l 1
 8 36 l 1
 8 40 l 1
 4 40 l 1
 4 44 l 1
20 40 m 1
 20 36 l 1
 16 36 l 1
 16 32 l 1
 16 28 l 1
 20 28 l 1
 20 24 l 1
 24 24 l 1
 24 28 l 1
 24 32 l 1
 24 36 l 1
 24 40 l 1
 20 40 l 1
20 24 m 1
 16 24 l 1
 12 24 l 1
 8 24 l 1
 4 24 l 1
 4 20 l 1
 8 20 l 1
 8 16 l 1
 12 16 l 1
 16 16 l 1
 16 20 l 1
 20 20 l 1
 20 24 l 1
8 16 m 1
 4 16 l 1
 4 20 l 1
 0 20 l 1
 0 16 l 1
 0 12 l 1
 0 8 l 1
 0 4 l 1
 4 4 l 1
 4 8 l 1
 8 8 l 1
 8 12 l 1
 8 16 l 1
8 8 m 1
 8 4 l 1
 4 4 l 1
 4 0 l 1
 8 0 l 1
 12 0 l 1
 16 0 l 1
 20 0 l 1
 20 4 l 1
 16 4 l 1
 16 8 l 1
 12 8 l 1
 8 8 l 1
EndSplineSet
Validated: 5
EndChar

StartChar: a
Encoding: 97 97 36
Width: 32
Flags: HW
LayerCount: 2
Fore
SplineSet
4 44 m 1
 8 44 l 1
 12 44 l 1
 16 44 l 1
 20 44 l 1
 20 40 l 1
 16 40 l 1
 16 36 l 1
 12 36 l 1
 8 36 l 1
 8 40 l 1
 4 40 l 1
 4 44 l 1
20 40 m 1
 24 40 l 1
 24 36 l 1
 24 32 l 1
 24 28 l 1
 24 24 l 1
 20 24 l 1
 20 28 l 1
 16 28 l 1
 16 32 l 1
 16 36 l 1
 20 36 l 1
 20 40 l 1
20 24 m 1
 20 20 l 1
 16 20 l 1
 16 16 l 1
 12 16 l 1
 8 16 l 1
 8 20 l 1
 4 20 l 1
 4 24 l 1
 8 24 l 1
 12 24 l 1
 16 24 l 1
 20 24 l 1
20 20 m 1
 24 20 l 1
 24 16 l 1
 24 12 l 1
 24 8 l 1
 24 4 l 1
 20 4 l 1
 20 8 l 1
 16 8 l 1
 16 12 l 1
 16 16 l 1
 20 16 l 1
 20 20 l 1
20 4 m 1
 20 0 l 1
 16 0 l 1
 12 0 l 1
 8 0 l 1
 4 0 l 1
 4 4 l 1
 8 4 l 1
 8 8 l 1
 12 8 l 1
 16 8 l 1
 16 4 l 1
 20 4 l 1
4 4 m 1
 0 4 l 1
 0 8 l 1
 0 12 l 1
 0 16 l 1
 0 20 l 1
 4 20 l 1
 4 16 l 1
 8 16 l 1
 8 12 l 1
 8 8 l 1
 4 8 l 1
 4 4 l 1
EndSplineSet
Validated: 5
EndChar

StartChar: b
Encoding: 98 98 37
Width: 32
Flags: HW
LayerCount: 2
Fore
SplineSet
0 40 m 1
 4 40 l 1
 4 36 l 1
 8 36 l 1
 8 32 l 1
 8 28 l 1
 4 28 l 1
 4 24 l 1
 0 24 l 1
 0 28 l 1
 0 32 l 1
 0 36 l 1
 0 40 l 1
4 24 m 1
 8 24 l 1
 12 24 l 1
 16 24 l 1
 20 24 l 1
 20 20 l 1
 16 20 l 1
 16 16 l 1
 12 16 l 1
 8 16 l 1
 8 20 l 1
 4 20 l 1
 4 24 l 1
20 20 m 1
 24 20 l 1
 24 16 l 1
 24 12 l 1
 24 8 l 1
 24 4 l 1
 20 4 l 1
 20 8 l 1
 16 8 l 1
 16 12 l 1
 16 16 l 1
 20 16 l 1
 20 20 l 1
20 4 m 1
 20 0 l 1
 16 0 l 1
 12 0 l 1
 8 0 l 1
 4 0 l 1
 4 4 l 1
 8 4 l 1
 8 8 l 1
 12 8 l 1
 16 8 l 1
 16 4 l 1
 20 4 l 1
4 4 m 1
 0 4 l 1
 0 8 l 1
 0 12 l 1
 0 16 l 1
 0 20 l 1
 4 20 l 1
 4 16 l 1
 8 16 l 1
 8 12 l 1
 8 8 l 1
 4 8 l 1
 4 4 l 1
EndSplineSet
Validated: 5
EndChar

StartChar: c
Encoding: 99 99 38
Width: 32
Flags: HW
LayerCount: 2
Fore
SplineSet
4 24 m 1
 8 24 l 1
 12 24 l 1
 16 24 l 1
 20 24 l 1
 20 20 l 1
 16 20 l 1
 16 16 l 1
 12 16 l 1
 8 16 l 1
 8 20 l 1
 4 20 l 1
 4 24 l 1
8 16 m 1
 8 12 l 1
 8 8 l 1
 4 8 l 1
 4 4 l 1
 0 4 l 1
 0 8 l 1
 0 12 l 1
 0 16 l 1
 0 20 l 1
 4 20 l 1
 4 16 l 1
 8 16 l 1
8 8 m 1
 12 8 l 1
 16 8 l 1
 16 4 l 1
 20 4 l 1
 20 0 l 1
 16 0 l 1
 12 0 l 1
 8 0 l 1
 4 0 l 1
 4 4 l 1
 8 4 l 1
 8 8 l 1
EndSplineSet
Validated: 5
EndChar

StartChar: d
Encoding: 100 100 39
Width: 32
Flags: HW
LayerCount: 2
Fore
SplineSet
20 40 m 1
 24 40 l 1
 24 36 l 1
 24 32 l 1
 24 28 l 1
 24 24 l 1
 20 24 l 1
 20 28 l 1
 16 28 l 1
 16 32 l 1
 16 36 l 1
 20 36 l 1
 20 40 l 1
20 24 m 1
 20 20 l 1
 16 20 l 1
 16 16 l 1
 12 16 l 1
 8 16 l 1
 8 20 l 1
 4 20 l 1
 4 24 l 1
 8 24 l 1
 12 24 l 1
 16 24 l 1
 20 24 l 1
20 20 m 1
 24 20 l 1
 24 16 l 1
 24 12 l 1
 24 8 l 1
 24 4 l 1
 20 4 l 1
 20 8 l 1
 16 8 l 1
 16 12 l 1
 16 16 l 1
 20 16 l 1
 20 20 l 1
20 4 m 1
 20 0 l 1
 16 0 l 1
 12 0 l 1
 8 0 l 1
 4 0 l 1
 4 4 l 1
 8 4 l 1
 8 8 l 1
 12 8 l 1
 16 8 l 1
 16 4 l 1
 20 4 l 1
4 4 m 1
 0 4 l 1
 0 8 l 1
 0 12 l 1
 0 16 l 1
 0 20 l 1
 4 20 l 1
 4 16 l 1
 8 16 l 1
 8 12 l 1
 8 8 l 1
 4 8 l 1
 4 4 l 1
EndSplineSet
Validated: 5
EndChar

StartChar: e
Encoding: 101 101 40
Width: 32
Flags: HW
LayerCount: 2
Fore
SplineSet
4 44 m 1
 8 44 l 1
 12 44 l 1
 16 44 l 1
 20 44 l 1
 20 40 l 1
 16 40 l 1
 16 36 l 1
 12 36 l 1
 8 36 l 1
 8 40 l 1
 4 40 l 1
 4 44 l 1
20 40 m 1
 24 40 l 1
 24 36 l 1
 24 32 l 1
 24 28 l 1
 24 24 l 1
 20 24 l 1
 20 28 l 1
 16 28 l 1
 16 32 l 1
 16 36 l 1
 20 36 l 1
 20 40 l 1
20 24 m 1
 20 20 l 1
 16 20 l 1
 16 16 l 1
 12 16 l 1
 8 16 l 1
 8 20 l 1
 4 20 l 1
 4 24 l 1
 8 24 l 1
 12 24 l 1
 16 24 l 1
 20 24 l 1
8 16 m 1
 8 12 l 1
 8 8 l 1
 4 8 l 1
 4 4 l 1
 0 4 l 1
 0 8 l 1
 0 12 l 1
 0 16 l 1
 0 20 l 1
 4 20 l 1
 4 16 l 1
 8 16 l 1
8 8 m 1
 12 8 l 1
 16 8 l 1
 16 4 l 1
 20 4 l 1
 20 0 l 1
 16 0 l 1
 12 0 l 1
 8 0 l 1
 4 0 l 1
 4 4 l 1
 8 4 l 1
 8 8 l 1
4 24 m 1
 0 24 l 1
 0 28 l 1
 0 32 l 1
 0 36 l 1
 0 40 l 1
 4 40 l 1
 4 36 l 1
 8 36 l 1
 8 32 l 1
 8 28 l 1
 4 28 l 1
 4 24 l 1
EndSplineSet
Validated: 5
EndChar

StartChar: f
Encoding: 102 102 41
Width: 32
Flags: HW
LayerCount: 2
Fore
SplineSet
4 44 m 1
 8 44 l 1
 12 44 l 1
 16 44 l 1
 20 44 l 1
 20 40 l 1
 16 40 l 1
 16 36 l 1
 12 36 l 1
 8 36 l 1
 8 40 l 1
 4 40 l 1
 4 44 l 1
8 36 m 1
 8 32 l 1
 8 28 l 1
 4 28 l 1
 4 24 l 1
 0 24 l 1
 0 28 l 1
 0 32 l 1
 0 36 l 1
 0 40 l 1
 4 40 l 1
 4 36 l 1
 8 36 l 1
4 24 m 1
 8 24 l 1
 12 24 l 1
 16 24 l 1
 20 24 l 1
 20 20 l 1
 16 20 l 1
 16 16 l 1
 12 16 l 1
 8 16 l 1
 8 20 l 1
 4 20 l 1
 4 24 l 1
8 16 m 1
 8 12 l 1
 8 8 l 1
 4 8 l 1
 4 4 l 1
 0 4 l 1
 0 8 l 1
 0 12 l 1
 0 16 l 1
 0 20 l 1
 4 20 l 1
 4 16 l 1
 8 16 l 1
EndSplineSet
Validated: 5
EndChar

StartChar: g
Encoding: 103 103 42
Width: 32
Flags: HW
LayerCount: 2
Fore
SplineSet
4 44 m 1
 8 44 l 1
 12 44 l 1
 16 44 l 1
 20 44 l 1
 20 40 l 1
 16 40 l 1
 16 36 l 1
 12 36 l 1
 8 36 l 1
 8 40 l 1
 4 40 l 1
 4 44 l 1
20 40 m 1
 24 40 l 1
 24 36 l 1
 24 32 l 1
 24 28 l 1
 24 24 l 1
 20 24 l 1
 20 28 l 1
 16 28 l 1
 16 32 l 1
 16 36 l 1
 20 36 l 1
 20 40 l 1
20 24 m 1
 20 20 l 1
 16 20 l 1
 16 16 l 1
 12 16 l 1
 8 16 l 1
 8 20 l 1
 4 20 l 1
 4 24 l 1
 8 24 l 1
 12 24 l 1
 16 24 l 1
 20 24 l 1
20 20 m 1
 24 20 l 1
 24 16 l 1
 24 12 l 1
 24 8 l 1
 24 4 l 1
 20 4 l 1
 20 8 l 1
 16 8 l 1
 16 12 l 1
 16 16 l 1
 20 16 l 1
 20 20 l 1
20 4 m 1
 20 0 l 1
 16 0 l 1
 12 0 l 1
 8 0 l 1
 4 0 l 1
 4 4 l 1
 8 4 l 1
 8 8 l 1
 12 8 l 1
 16 8 l 1
 16 4 l 1
 20 4 l 1
4 24 m 1
 0 24 l 1
 0 28 l 1
 0 32 l 1
 0 36 l 1
 0 40 l 1
 4 40 l 1
 4 36 l 1
 8 36 l 1
 8 32 l 1
 8 28 l 1
 4 28 l 1
 4 24 l 1
EndSplineSet
Validated: 5
EndChar

StartChar: h
Encoding: 104 104 43
Width: 32
Flags: HW
LayerCount: 2
Fore
SplineSet
0 40 m 1
 4 40 l 1
 4 36 l 1
 8 36 l 1
 8 32 l 1
 8 28 l 1
 4 28 l 1
 4 24 l 1
 0 24 l 1
 0 28 l 1
 0 32 l 1
 0 36 l 1
 0 40 l 1
4 24 m 1
 8 24 l 1
 12 24 l 1
 16 24 l 1
 20 24 l 1
 20 20 l 1
 16 20 l 1
 16 16 l 1
 12 16 l 1
 8 16 l 1
 8 20 l 1
 4 20 l 1
 4 24 l 1
20 20 m 1
 24 20 l 1
 24 16 l 1
 24 12 l 1
 24 8 l 1
 24 4 l 1
 20 4 l 1
 20 8 l 1
 16 8 l 1
 16 12 l 1
 16 16 l 1
 20 16 l 1
 20 20 l 1
8 16 m 1
 8 12 l 1
 8 8 l 1
 4 8 l 1
 4 4 l 1
 0 4 l 1
 0 8 l 1
 0 12 l 1
 0 16 l 1
 0 20 l 1
 4 20 l 1
 4 16 l 1
 8 16 l 1
EndSplineSet
Validated: 5
EndChar

StartChar: i
Encoding: 105 105 44
Width: 32
Flags: HW
LayerCount: 2
Fore
SplineSet
0 20 m 1
 4 20 l 1
 4 16 l 1
 8 16 l 1
 8 12 l 1
 8 8 l 1
 4 8 l 1
 4 4 l 1
 0 4 l 1
 0 8 l 1
 0 12 l 1
 0 16 l 1
 0 20 l 1
EndSplineSet
Validated: 1
EndChar

StartChar: j
Encoding: 106 106 45
Width: 32
Flags: HW
LayerCount: 2
Fore
SplineSet
20 40 m 1
 24 40 l 1
 24 36 l 1
 24 32 l 1
 24 28 l 1
 24 24 l 1
 20 24 l 1
 20 28 l 1
 16 28 l 1
 16 32 l 1
 16 36 l 1
 20 36 l 1
 20 40 l 1
0 20 m 1
 4 20 l 1
 4 16 l 1
 8 16 l 1
 8 12 l 1
 8 8 l 1
 4 8 l 1
 4 4 l 1
 0 4 l 1
 0 8 l 1
 0 12 l 1
 0 16 l 1
 0 20 l 1
8 8 m 1
 12 8 l 1
 16 8 l 1
 16 4 l 1
 20 4 l 1
 20 0 l 1
 16 0 l 1
 12 0 l 1
 8 0 l 1
 4 0 l 1
 4 4 l 1
 8 4 l 1
 8 8 l 1
16 8 m 1
 16 12 l 1
 16 16 l 1
 20 16 l 1
 20 20 l 1
 24 20 l 1
 24 16 l 1
 24 12 l 1
 24 8 l 1
 24 4 l 1
 20 4 l 1
 20 8 l 1
 16 8 l 1
EndSplineSet
Validated: 5
EndChar

StartChar: k
Encoding: 107 107 46
Width: 32
Flags: HW
LayerCount: 2
Fore
SplineSet
0 40 m 1
 4 40 l 1
 4 36 l 1
 8 36 l 1
 8 32 l 1
 8 28 l 1
 4 28 l 1
 4 24 l 1
 0 24 l 1
 0 28 l 1
 0 32 l 1
 0 36 l 1
 0 40 l 1
4 24 m 1
 8 24 l 1
 12 24 l 1
 16 24 l 1
 20 24 l 1
 20 20 l 1
 16 20 l 1
 16 16 l 1
 12 16 l 1
 8 16 l 1
 8 20 l 1
 4 20 l 1
 4 24 l 1
20 24 m 1
 20 28 l 1
 16 28 l 1
 16 32 l 1
 16 36 l 1
 20 36 l 1
 20 40 l 1
 24 40 l 1
 24 36 l 1
 24 32 l 1
 24 28 l 1
 24 24 l 1
 20 24 l 1
20 20 m 1
 24 20 l 1
 24 16 l 1
 24 12 l 1
 24 8 l 1
 24 4 l 1
 20 4 l 1
 20 8 l 1
 16 8 l 1
 16 12 l 1
 16 16 l 1
 20 16 l 1
 20 20 l 1
8 16 m 1
 8 12 l 1
 8 8 l 1
 4 8 l 1
 4 4 l 1
 0 4 l 1
 0 8 l 1
 0 12 l 1
 0 16 l 1
 0 20 l 1
 4 20 l 1
 4 16 l 1
 8 16 l 1
EndSplineSet
Validated: 5
EndChar

StartChar: l
Encoding: 108 108 47
Width: 32
Flags: HW
LayerCount: 2
Fore
SplineSet
0 40 m 1
 4 40 l 1
 4 36 l 1
 8 36 l 1
 8 32 l 1
 8 28 l 1
 4 28 l 1
 4 24 l 1
 0 24 l 1
 0 28 l 1
 0 32 l 1
 0 36 l 1
 0 40 l 1
0 20 m 1
 4 20 l 1
 4 16 l 1
 8 16 l 1
 8 12 l 1
 8 8 l 1
 4 8 l 1
 4 4 l 1
 0 4 l 1
 0 8 l 1
 0 12 l 1
 0 16 l 1
 0 20 l 1
8 8 m 1
 12 8 l 1
 16 8 l 1
 16 4 l 1
 20 4 l 1
 20 0 l 1
 16 0 l 1
 12 0 l 1
 8 0 l 1
 4 0 l 1
 4 4 l 1
 8 4 l 1
 8 8 l 1
EndSplineSet
Validated: 5
EndChar

StartChar: m
Encoding: 109 109 48
Width: 32
Flags: HW
LayerCount: 2
Fore
SplineSet
4 44 m 1
 8 44 l 1
 12 44 l 1
 16 44 l 1
 20 44 l 1
 20 40 l 1
 16 40 l 1
 16 36 l 1
 12 36 l 1
 8 36 l 1
 8 40 l 1
 4 40 l 1
 4 44 l 1
20 40 m 1
 24 40 l 1
 24 36 l 1
 24 32 l 1
 24 28 l 1
 24 24 l 1
 20 24 l 1
 20 28 l 1
 16 28 l 1
 16 32 l 1
 16 36 l 1
 20 36 l 1
 20 40 l 1
8 36 m 1
 8 32 l 1
 8 28 l 1
 4 28 l 1
 4 24 l 1
 0 24 l 1
 0 28 l 1
 0 32 l 1
 0 36 l 1
 0 40 l 1
 4 40 l 1
 4 36 l 1
 8 36 l 1
0 20 m 1
 4 20 l 1
 4 16 l 1
 8 16 l 1
 8 12 l 1
 8 8 l 1
 4 8 l 1
 4 4 l 1
 0 4 l 1
 0 8 l 1
 0 12 l 1
 0 16 l 1
 0 20 l 1
20 20 m 1
 24 20 l 1
 24 16 l 1
 24 12 l 1
 24 8 l 1
 24 4 l 1
 20 4 l 1
 20 8 l 1
 16 8 l 1
 16 12 l 1
 16 16 l 1
 20 16 l 1
 20 20 l 1
EndSplineSet
Validated: 5
EndChar

StartChar: n
Encoding: 110 110 49
Width: 32
Flags: HW
LayerCount: 2
Fore
SplineSet
4 24 m 1
 8 24 l 1
 12 24 l 1
 16 24 l 1
 20 24 l 1
 20 20 l 1
 16 20 l 1
 16 16 l 1
 12 16 l 1
 8 16 l 1
 8 20 l 1
 4 20 l 1
 4 24 l 1
20 20 m 1
 24 20 l 1
 24 16 l 1
 24 12 l 1
 24 8 l 1
 24 4 l 1
 20 4 l 1
 20 8 l 1
 16 8 l 1
 16 12 l 1
 16 16 l 1
 20 16 l 1
 20 20 l 1
8 16 m 1
 8 12 l 1
 8 8 l 1
 4 8 l 1
 4 4 l 1
 0 4 l 1
 0 8 l 1
 0 12 l 1
 0 16 l 1
 0 20 l 1
 4 20 l 1
 4 16 l 1
 8 16 l 1
EndSplineSet
Validated: 5
EndChar

StartChar: o
Encoding: 111 111 50
Width: 32
Flags: HW
LayerCount: 2
Fore
SplineSet
4 24 m 1
 8 24 l 1
 12 24 l 1
 16 24 l 1
 20 24 l 1
 20 20 l 1
 16 20 l 1
 16 16 l 1
 12 16 l 1
 8 16 l 1
 8 20 l 1
 4 20 l 1
 4 24 l 1
20 20 m 1
 24 20 l 1
 24 16 l 1
 24 12 l 1
 24 8 l 1
 24 4 l 1
 20 4 l 1
 20 8 l 1
 16 8 l 1
 16 12 l 1
 16 16 l 1
 20 16 l 1
 20 20 l 1
20 4 m 1
 20 0 l 1
 16 0 l 1
 12 0 l 1
 8 0 l 1
 4 0 l 1
 4 4 l 1
 8 4 l 1
 8 8 l 1
 12 8 l 1
 16 8 l 1
 16 4 l 1
 20 4 l 1
4 4 m 1
 0 4 l 1
 0 8 l 1
 0 12 l 1
 0 16 l 1
 0 20 l 1
 4 20 l 1
 4 16 l 1
 8 16 l 1
 8 12 l 1
 8 8 l 1
 4 8 l 1
 4 4 l 1
EndSplineSet
Validated: 5
EndChar

StartChar: p
Encoding: 112 112 51
Width: 32
Flags: HW
LayerCount: 2
Fore
SplineSet
4 44 m 1
 8 44 l 1
 12 44 l 1
 16 44 l 1
 20 44 l 1
 20 40 l 1
 16 40 l 1
 16 36 l 1
 12 36 l 1
 8 36 l 1
 8 40 l 1
 4 40 l 1
 4 44 l 1
20 40 m 1
 24 40 l 1
 24 36 l 1
 24 32 l 1
 24 28 l 1
 24 24 l 1
 20 24 l 1
 20 28 l 1
 16 28 l 1
 16 32 l 1
 16 36 l 1
 20 36 l 1
 20 40 l 1
20 24 m 1
 20 20 l 1
 16 20 l 1
 16 16 l 1
 12 16 l 1
 8 16 l 1
 8 20 l 1
 4 20 l 1
 4 24 l 1
 8 24 l 1
 12 24 l 1
 16 24 l 1
 20 24 l 1
8 16 m 1
 8 12 l 1
 8 8 l 1
 4 8 l 1
 4 4 l 1
 0 4 l 1
 0 8 l 1
 0 12 l 1
 0 16 l 1
 0 20 l 1
 4 20 l 1
 4 16 l 1
 8 16 l 1
4 24 m 1
 0 24 l 1
 0 28 l 1
 0 32 l 1
 0 36 l 1
 0 40 l 1
 4 40 l 1
 4 36 l 1
 8 36 l 1
 8 32 l 1
 8 28 l 1
 4 28 l 1
 4 24 l 1
EndSplineSet
Validated: 5
EndChar

StartChar: q
Encoding: 113 113 52
Width: 32
Flags: HW
LayerCount: 2
Fore
SplineSet
4 44 m 1
 8 44 l 1
 12 44 l 1
 16 44 l 1
 20 44 l 1
 20 40 l 1
 16 40 l 1
 16 36 l 1
 12 36 l 1
 8 36 l 1
 8 40 l 1
 4 40 l 1
 4 44 l 1
20 40 m 1
 24 40 l 1
 24 36 l 1
 24 32 l 1
 24 28 l 1
 24 24 l 1
 20 24 l 1
 20 28 l 1
 16 28 l 1
 16 32 l 1
 16 36 l 1
 20 36 l 1
 20 40 l 1
20 24 m 1
 20 20 l 1
 16 20 l 1
 16 16 l 1
 12 16 l 1
 8 16 l 1
 8 20 l 1
 4 20 l 1
 4 24 l 1
 8 24 l 1
 12 24 l 1
 16 24 l 1
 20 24 l 1
20 20 m 1
 24 20 l 1
 24 16 l 1
 24 12 l 1
 24 8 l 1
 24 4 l 1
 20 4 l 1
 20 8 l 1
 16 8 l 1
 16 12 l 1
 16 16 l 1
 20 16 l 1
 20 20 l 1
4 24 m 1
 0 24 l 1
 0 28 l 1
 0 32 l 1
 0 36 l 1
 0 40 l 1
 4 40 l 1
 4 36 l 1
 8 36 l 1
 8 32 l 1
 8 28 l 1
 4 28 l 1
 4 24 l 1
EndSplineSet
Validated: 5
EndChar

StartChar: r
Encoding: 114 114 53
Width: 32
Flags: HW
LayerCount: 2
Fore
SplineSet
4 24 m 1
 8 24 l 1
 12 24 l 1
 16 24 l 1
 20 24 l 1
 20 20 l 1
 16 20 l 1
 16 16 l 1
 12 16 l 1
 8 16 l 1
 8 20 l 1
 4 20 l 1
 4 24 l 1
8 16 m 1
 8 12 l 1
 8 8 l 1
 4 8 l 1
 4 4 l 1
 0 4 l 1
 0 8 l 1
 0 12 l 1
 0 16 l 1
 0 20 l 1
 4 20 l 1
 4 16 l 1
 8 16 l 1
EndSplineSet
Validated: 5
EndChar

StartChar: s
Encoding: 115 115 54
Width: 32
Flags: HW
LayerCount: 2
Fore
SplineSet
4 44 m 1
 8 44 l 1
 12 44 l 1
 16 44 l 1
 20 44 l 1
 20 40 l 1
 16 40 l 1
 16 36 l 1
 12 36 l 1
 8 36 l 1
 8 40 l 1
 4 40 l 1
 4 44 l 1
8 36 m 1
 8 32 l 1
 8 28 l 1
 4 28 l 1
 4 24 l 1
 0 24 l 1
 0 28 l 1
 0 32 l 1
 0 36 l 1
 0 40 l 1
 4 40 l 1
 4 36 l 1
 8 36 l 1
4 24 m 1
 8 24 l 1
 12 24 l 1
 16 24 l 1
 20 24 l 1
 20 20 l 1
 16 20 l 1
 16 16 l 1
 12 16 l 1
 8 16 l 1
 8 20 l 1
 4 20 l 1
 4 24 l 1
20 20 m 1
 24 20 l 1
 24 16 l 1
 24 12 l 1
 24 8 l 1
 24 4 l 1
 20 4 l 1
 20 8 l 1
 16 8 l 1
 16 12 l 1
 16 16 l 1
 20 16 l 1
 20 20 l 1
20 4 m 1
 20 0 l 1
 16 0 l 1
 12 0 l 1
 8 0 l 1
 4 0 l 1
 4 4 l 1
 8 4 l 1
 8 8 l 1
 12 8 l 1
 16 8 l 1
 16 4 l 1
 20 4 l 1
EndSplineSet
Validated: 5
EndChar

StartChar: t
Encoding: 116 116 55
Width: 32
Flags: HW
LayerCount: 2
Fore
SplineSet
4 24 m 1
 8 24 l 1
 12 24 l 1
 16 24 l 1
 20 24 l 1
 20 20 l 1
 16 20 l 1
 16 16 l 1
 12 16 l 1
 8 16 l 1
 8 20 l 1
 4 20 l 1
 4 24 l 1
20 20 m 1
 24 20 l 1
 24 16 l 1
 24 12 l 1
 24 8 l 1
 24 4 l 1
 20 4 l 1
 20 8 l 1
 16 8 l 1
 16 12 l 1
 16 16 l 1
 20 16 l 1
 20 20 l 1
EndSplineSet
Validated: 5
EndChar

StartChar: u
Encoding: 117 117 56
Width: 32
Flags: HW
LayerCount: 2
Fore
SplineSet
0 40 m 1
 4 40 l 1
 4 36 l 1
 8 36 l 1
 8 32 l 1
 8 28 l 1
 4 28 l 1
 4 24 l 1
 0 24 l 1
 0 28 l 1
 0 32 l 1
 0 36 l 1
 0 40 l 1
20 40 m 1
 24 40 l 1
 24 36 l 1
 24 32 l 1
 24 28 l 1
 24 24 l 1
 20 24 l 1
 20 28 l 1
 16 28 l 1
 16 32 l 1
 16 36 l 1
 20 36 l 1
 20 40 l 1
0 20 m 1
 4 20 l 1
 4 16 l 1
 8 16 l 1
 8 12 l 1
 8 8 l 1
 4 8 l 1
 4 4 l 1
 0 4 l 1
 0 8 l 1
 0 12 l 1
 0 16 l 1
 0 20 l 1
8 8 m 1
 12 8 l 1
 16 8 l 1
 16 4 l 1
 20 4 l 1
 20 0 l 1
 16 0 l 1
 12 0 l 1
 8 0 l 1
 4 0 l 1
 4 4 l 1
 8 4 l 1
 8 8 l 1
16 8 m 1
 16 12 l 1
 16 16 l 1
 20 16 l 1
 20 20 l 1
 24 20 l 1
 24 16 l 1
 24 12 l 1
 24 8 l 1
 24 4 l 1
 20 4 l 1
 20 8 l 1
 16 8 l 1
EndSplineSet
Validated: 5
EndChar

StartChar: v
Encoding: 118 118 57
Width: 32
Flags: HW
LayerCount: 2
Fore
SplineSet
0 20 m 1
 4 20 l 1
 4 16 l 1
 8 16 l 1
 8 12 l 1
 8 8 l 1
 4 8 l 1
 4 4 l 1
 0 4 l 1
 0 8 l 1
 0 12 l 1
 0 16 l 1
 0 20 l 1
8 8 m 1
 12 8 l 1
 16 8 l 1
 16 4 l 1
 20 4 l 1
 20 0 l 1
 16 0 l 1
 12 0 l 1
 8 0 l 1
 4 0 l 1
 4 4 l 1
 8 4 l 1
 8 8 l 1
16 8 m 1
 16 12 l 1
 16 16 l 1
 20 16 l 1
 20 20 l 1
 24 20 l 1
 24 16 l 1
 24 12 l 1
 24 8 l 1
 24 4 l 1
 20 4 l 1
 20 8 l 1
 16 8 l 1
EndSplineSet
Validated: 5
EndChar

StartChar: w
Encoding: 119 119 58
Width: 32
Flags: HW
LayerCount: 2
Fore
SplineSet
0 20 m 1
 4 20 l 1
 4 16 l 1
 8 16 l 1
 8 12 l 1
 8 8 l 1
 4 8 l 1
 4 4 l 1
 0 4 l 1
 0 8 l 1
 0 12 l 1
 0 16 l 1
 0 20 l 1
8 8 m 1
 12 8 l 1
 16 8 l 1
 16 4 l 1
 20 4 l 1
 20 0 l 1
 16 0 l 1
 12 0 l 1
 8 0 l 1
 4 0 l 1
 4 4 l 1
 8 4 l 1
 8 8 l 1
16 8 m 1
 16 12 l 1
 16 16 l 1
 20 16 l 1
 20 20 l 1
 24 20 l 1
 24 16 l 1
 24 12 l 1
 24 8 l 1
 24 4 l 1
 20 4 l 1
 20 8 l 1
 16 8 l 1
EndSplineSet
Validated: 5
EndChar

StartChar: x
Encoding: 120 120 59
Width: 32
Flags: HW
LayerCount: 2
Fore
SplineSet
0 40 m 1
 4 40 l 1
 4 36 l 1
 8 36 l 1
 8 32 l 1
 8 28 l 1
 4 28 l 1
 4 24 l 1
 0 24 l 1
 0 28 l 1
 0 32 l 1
 0 36 l 1
 0 40 l 1
4 24 m 1
 8 24 l 1
 12 24 l 1
 16 24 l 1
 20 24 l 1
 20 20 l 1
 16 20 l 1
 16 16 l 1
 12 16 l 1
 8 16 l 1
 8 20 l 1
 4 20 l 1
 4 24 l 1
20 24 m 1
 20 28 l 1
 16 28 l 1
 16 32 l 1
 16 36 l 1
 20 36 l 1
 20 40 l 1
 24 40 l 1
 24 36 l 1
 24 32 l 1
 24 28 l 1
 24 24 l 1
 20 24 l 1
20 20 m 1
 24 20 l 1
 24 16 l 1
 24 12 l 1
 24 8 l 1
 24 4 l 1
 20 4 l 1
 20 8 l 1
 16 8 l 1
 16 12 l 1
 16 16 l 1
 20 16 l 1
 20 20 l 1
8 16 m 1
 8 12 l 1
 8 8 l 1
 4 8 l 1
 4 4 l 1
 0 4 l 1
 0 8 l 1
 0 12 l 1
 0 16 l 1
 0 20 l 1
 4 20 l 1
 4 16 l 1
 8 16 l 1
EndSplineSet
Validated: 5
EndChar

StartChar: y
Encoding: 121 121 60
Width: 32
Flags: HW
LayerCount: 2
Fore
SplineSet
0 40 m 1
 4 40 l 1
 4 36 l 1
 8 36 l 1
 8 32 l 1
 8 28 l 1
 4 28 l 1
 4 24 l 1
 0 24 l 1
 0 28 l 1
 0 32 l 1
 0 36 l 1
 0 40 l 1
4 24 m 1
 8 24 l 1
 12 24 l 1
 16 24 l 1
 20 24 l 1
 20 20 l 1
 16 20 l 1
 16 16 l 1
 12 16 l 1
 8 16 l 1
 8 20 l 1
 4 20 l 1
 4 24 l 1
20 24 m 1
 20 28 l 1
 16 28 l 1
 16 32 l 1
 16 36 l 1
 20 36 l 1
 20 40 l 1
 24 40 l 1
 24 36 l 1
 24 32 l 1
 24 28 l 1
 24 24 l 1
 20 24 l 1
20 20 m 1
 24 20 l 1
 24 16 l 1
 24 12 l 1
 24 8 l 1
 24 4 l 1
 20 4 l 1
 20 8 l 1
 16 8 l 1
 16 12 l 1
 16 16 l 1
 20 16 l 1
 20 20 l 1
20 4 m 1
 20 0 l 1
 16 0 l 1
 12 0 l 1
 8 0 l 1
 4 0 l 1
 4 4 l 1
 8 4 l 1
 8 8 l 1
 12 8 l 1
 16 8 l 1
 16 4 l 1
 20 4 l 1
EndSplineSet
Validated: 5
EndChar

StartChar: z
Encoding: 122 122 61
Width: 32
Flags: HW
LayerCount: 2
Fore
SplineSet
4 44 m 1
 8 44 l 1
 12 44 l 1
 16 44 l 1
 20 44 l 1
 20 40 l 1
 16 40 l 1
 16 36 l 1
 12 36 l 1
 8 36 l 1
 8 40 l 1
 4 40 l 1
 4 44 l 1
20 40 m 1
 24 40 l 1
 24 36 l 1
 24 32 l 1
 24 28 l 1
 24 24 l 1
 20 24 l 1
 20 28 l 1
 16 28 l 1
 16 32 l 1
 16 36 l 1
 20 36 l 1
 20 40 l 1
20 24 m 1
 20 20 l 1
 16 20 l 1
 16 16 l 1
 12 16 l 1
 8 16 l 1
 8 20 l 1
 4 20 l 1
 4 24 l 1
 8 24 l 1
 12 24 l 1
 16 24 l 1
 20 24 l 1
8 16 m 1
 8 12 l 1
 8 8 l 1
 4 8 l 1
 4 4 l 1
 0 4 l 1
 0 8 l 1
 0 12 l 1
 0 16 l 1
 0 20 l 1
 4 20 l 1
 4 16 l 1
 8 16 l 1
8 8 m 1
 12 8 l 1
 16 8 l 1
 16 4 l 1
 20 4 l 1
 20 0 l 1
 16 0 l 1
 12 0 l 1
 8 0 l 1
 4 0 l 1
 4 4 l 1
 8 4 l 1
 8 8 l 1
EndSplineSet
Validated: 5
EndChar

StartChar: hyphen
Encoding: 45 45 63
Width: 32
Flags: HW
LayerCount: 2
Fore
SplineSet
4 24 m 1
 8 24 l 1
 12 24 l 1
 16 24 l 1
 20 24 l 1
 20 20 l 1
 16 20 l 1
 16 16 l 1
 12 16 l 1
 8 16 l 1
 8 20 l 1
 4 20 l 1
 4 24 l 1
EndSplineSet
Validated: 1
EndChar
